# xmcd
#
# Track frame offsets: 
#        150
#        21255
#        78045
#        135973
#        179981
#        250109
#        294981
#
# Disc length: 4457 seconds
#
# Revision: 0
# Processed by: cddbd v1.4PL0 Copyright (c) Steve Scherf et al.
# Submitted via: ExactAudioCopy v0.90b4
#
DISCID=56116707
DTITLE=Tim McGraw - The Radio Special
DYEAR=1900
DGENRE=Country
TTITLE0=A Certain Uncertainty (Something Like That)
TTITLE1=A Big Production Music Video (Down On The Farm, She Never Lets
TTITLE1=It Go To Her Heart, Please Remember Me)
TTITLE2=Tim Goes Home (Where The Green Grass Grows, Let's Make Love, F
TTITLE2=or A Little While)
TTITLE3=A Controversial Song (Indian Outlaw, Don't Take The Girl)
TTITLE4=Finding Hit Songs (Just To See You Smile, My Best Friend, Why 
TTITLE4=Don't We Just Sleep On It)
TTITLE5=Live Music Is The Greatest (I Like It, I Love It, My Next Thir
TTITLE5=ty Years)
TTITLE6=Faith Hill Joins Us - Special Live Version Of (It's Your Love)
EXTD=
EXTT0=
EXTT1=
EXTT2=
EXTT3=
EXTT4=
EXTT5=
EXTT6=
PLAYORDER=
